<svg xmlns="http://www.w3.org/2000/svg" viewBox="0 0 52 52" id="Adduser"><path d="M20.895 33.403c4.301-1.032 6.694-5.958 6.543-10.138-.186-5.16-4.608-7.716-9.356-7.686-4.915.03-7.282 3.405-7.694 8.11-.39 4.43 2.38 8.206 6.374 9.826 1.49.604 2.139-1.813.665-2.411-5.502-2.232-6.774-12.919.655-13.025 3.598-.052 6.855 1.621 6.85 5.65-.002 2.943-1.646 6.53-4.702 7.263-1.564.375-.902 2.786.665 2.41zM35.566 47.886c-6.728.23-13.457.42-20.188.553-2.778.055-6.152.666-8.874.105-4.912-1.011-2.524-6.264-.476-8.844.99-1.247-.767-3.028-1.767-1.767-2.542 3.2-6.311 11.643-.217 12.892 4.217.864 8.982.165 13.257.075 6.09-.13 12.178-.305 18.265-.514 1.605-.055 1.612-2.555 0-2.5z" fill="#34a853" class="color000000 svgShape"></path><path d="M6.268 39.288c1.383-1.613 2.868-3.253 5.001-3.79 1.56-.394.899-2.805-.665-2.412-2.56.645-4.434 2.487-6.103 4.434-1.043 1.215.718 2.991 1.767 1.768z" fill="#34a853" class="color000000 svgShape"></path><path d="M12.2 35.057a5.88 5.88 0 0 1 1.132-.596c.632-.236 1.063-.844.873-1.537-.167-.607-.902-1.111-1.538-.873a8.823 8.823 0 0 0-1.73.847c-.565.368-.8 1.109-.448 1.71.33.563 1.142.818 1.71.45z" fill="#34a853" class="color000000 svgShape"></path><path d="M13.66 34.324h.084c1.609 0 1.611-2.5 0-2.5h-.083c-1.609 0-1.612 2.5 0 2.5z" fill="#34a853" class="color000000 svgShape"></path><path d="M15.16 33.99h.084c1.609 0 1.611-2.5 0-2.5h-.083c-1.609 0-1.612 2.5 0 2.5z" fill="#34a853" class="color000000 svgShape"></path><path d="M15.794 34.056c3.539-1.313 9.189.869 12.212 2.888 2.941 1.965 5.747 7.425 5.937 10.882.088 1.6 2.588 1.61 2.5 0-.236-4.285-2.696-9.623-6.163-12.323-3.745-2.916-10.556-5.562-15.15-3.857-1.496.554-.85 2.972.664 2.41zM31.488 8.97a8.97 8.97 0 002.066-1.687c1.117-1.199 1.701-2.32 3.284-3.023 1.364-.606 2.907-.789 4.382-.891 2.679-.186 4.725.14 5.968 2.795.85 1.815 1.436 5.234 1.479 7.134.104 4.602-5.941 8.514-10.37 7.604-2.786-.572-4.707-2.667-5.763-5.208-.825-1.989-2.286-7.073-.065-8.728 1.275-.951.03-3.122-1.262-2.16-4.73 3.528-1.83 13.431 2.137 16.63 5.252 4.234 12.576 1.47 16.549-3.143 1.73-2.01 1.446-4.179 1.058-6.72-.437-2.856-.8-7.245-3.11-9.303C45.62.293 41.563.65 38.915 1.1c-1.63.279-3.49.75-4.907 1.663-1.672 1.078-2.038 2.992-3.783 4.048-1.374.832-.12 2.995 1.262 2.159z" fill="#34a853" class="color000000 svgShape"></path><path d="M38.68 7.618c.401 2.625-.353 5.263-.02 7.9.2 1.575 2.703 1.595 2.5 0-.362-2.862.368-5.699-.069-8.565-.242-1.585-2.651-.912-2.41.665z" fill="#34a853" class="color000000 svgShape"></path><path d="M44.913 10.927c-3.047-.374-5.815-.756-8.824.061-1.551.421-.893 2.834.664 2.411 2.756-.748 5.377-.314 8.16.028 1.593.196 1.58-2.306 0-2.5z" fill="#34a853" class="color000000 svgShape"></path></svg>